<svg width="830" height="795" viewBox="0 0 830 795" fill="none" xmlns="http://www.w3.org/2000/svg">
<path d="M414.177 791.694C642.921 791.926 828.534 614.98 828.755 396.476C828.976 177.971 643.722 0.650515 414.978 0.41907C186.234 0.187624 0.621556 177.133 0.40047 395.638C0.179385 614.142 185.434 791.463 414.177 791.694Z" fill="#535353"/>
<g style="mix-blend-mode:darken" opacity="0.2">
<path d="M412.524 794.875C641.271 794.875 826.677 617.727 826.677 399.229C826.466 343.351 814.157 288.181 790.597 237.512C767.037 186.844 732.784 141.878 690.193 105.706C758.612 177.092 796.898 272.095 797.096 370.974C797.096 589.481 581.526 790.79 352.779 790.79" fill="black"/>
</g>
<g opacity="0.8">
<g style="mix-blend-mode:darken" opacity="0.1">
<path d="M286.74 160.68C303.582 160.68 317.236 147.026 317.236 130.184C317.236 113.342 303.582 99.689 286.74 99.689C269.898 99.689 256.245 113.342 256.245 130.184C256.245 147.026 269.898 160.68 286.74 160.68Z" fill="#312449"/>
</g>
<g style="mix-blend-mode:darken" opacity="0.1">
<path d="M265.5 130.183C265.512 122.91 268.13 115.882 272.879 110.373C277.627 104.865 284.193 101.24 291.385 100.157C289.857 99.8815 288.31 99.7247 286.758 99.6879C282.712 99.622 278.693 100.362 274.936 101.865C271.179 103.368 267.759 105.603 264.874 108.441C261.99 111.279 259.699 114.662 258.135 118.394C256.571 122.127 255.766 126.133 255.766 130.179C255.766 134.226 256.571 138.232 258.135 141.964C259.699 145.696 261.99 149.079 264.874 151.917C267.759 154.755 271.179 156.991 274.936 158.493C278.693 159.996 282.712 160.736 286.758 160.67C288.31 160.632 289.856 160.478 291.385 160.209C284.194 159.124 277.629 155.499 272.88 149.991C268.132 144.483 265.514 137.456 265.5 130.183Z" fill="#312449"/>
</g>
</g>
<g opacity="0.8">
<g style="mix-blend-mode:darken" opacity="0.1">
<path d="M744.082 380.583C760.357 380.583 773.55 367.39 773.55 351.115C773.55 334.84 760.357 321.647 744.082 321.647C727.808 321.647 714.614 334.84 714.614 351.115C714.614 367.39 727.808 380.583 744.082 380.583Z" fill="#312449"/>
</g>
<g style="mix-blend-mode:darken" opacity="0.1">
<path d="M723.563 351.107C723.573 344.082 726.098 337.294 730.682 331.971C735.266 326.648 741.604 323.144 748.55 322.092C747.072 321.828 745.577 321.679 744.076 321.647C736.347 321.775 728.977 324.935 723.556 330.447C718.135 335.959 715.097 343.38 715.097 351.111C715.097 358.842 718.135 366.263 723.556 371.775C728.977 377.286 736.347 380.447 744.076 380.575C745.577 380.54 747.072 380.388 748.55 380.122C741.604 379.07 735.266 375.565 730.682 370.243C726.098 364.92 723.573 358.131 723.563 351.107Z" fill="#312449"/>
</g>
</g>
<g opacity="0.8">
<g style="mix-blend-mode:darken" opacity="0.1">
<path d="M226.787 624.748C243.062 624.748 256.255 611.555 256.255 595.28C256.255 579.006 243.062 565.812 226.787 565.812C210.513 565.812 197.319 579.006 197.319 595.28C197.319 611.555 210.513 624.748 226.787 624.748Z" fill="#312449"/>
</g>
<g style="mix-blend-mode:darken" opacity="0.1">
<path d="M206.268 595.281C206.278 588.256 208.804 581.468 213.388 576.145C217.971 570.822 224.31 567.317 231.255 566.265C229.778 565.999 228.283 565.848 226.782 565.812C219.052 565.941 211.682 569.101 206.261 574.613C200.84 580.124 197.802 587.545 197.802 595.276C197.802 603.007 200.84 610.428 206.261 615.94C211.682 621.452 219.052 624.612 226.782 624.74C228.282 624.708 229.778 624.559 231.255 624.296C224.31 623.244 217.971 619.739 213.388 614.416C208.804 609.093 206.278 602.305 206.268 595.281Z" fill="#312449"/>
</g>
</g>
<g style="mix-blend-mode:darken" opacity="0.1">
<path d="M497.297 140.221L449.831 184.039L443.918 236.989L484.516 297.236L544.771 280.297L567.59 316.406C567.59 316.406 601.725 284.318 606.109 277.992C610.493 271.667 620.532 207.772 620.532 205.038C620.532 202.304 608.115 150.26 606.109 150.26C604.103 150.26 543.824 157.645 541.115 158.058C538.405 158.47 511.905 162.207 511.905 158.058C511.312 152.067 510.397 146.113 509.163 140.221H497.297Z" fill="#312449"/>
</g>
<g style="mix-blend-mode:darken" opacity="0.1">
<path d="M556.33 158.057C558.255 157.766 588.467 154.053 607.031 151.853C606.643 150.907 606.311 150.235 606.109 150.235C604.103 150.235 543.824 157.62 541.115 158.033C539.982 158.211 534.757 158.947 529.046 159.465C538.164 160.071 547.322 159.599 556.33 158.057Z" fill="#312449"/>
</g>
<g style="mix-blend-mode:darken" opacity="0.1">
<path d="M459.133 236.989L465.046 184.039L509.673 142.842C509.374 141.281 509.163 140.221 509.163 140.221H497.297L449.831 184.039L443.918 236.989L484.516 297.236L497.305 293.636L459.133 236.989Z" fill="#312449"/>
</g>
<g style="mix-blend-mode:darken" opacity="0.1">
<path d="M559.977 280.297L547.035 283.929L567.565 316.406C567.565 316.406 571.609 312.596 577.069 307.379L559.977 280.297Z" fill="#312449"/>
</g>
<g style="mix-blend-mode:darken" opacity="0.1">
<path d="M520.043 645.958L486.547 658.9L482.373 674.544L511.024 692.34L553.531 687.34L569.636 698.002C569.636 698.002 593.717 688.53 596.815 686.677C601.258 680.038 604.69 672.776 606.999 665.128C604.308 659.324 600.885 653.887 596.815 648.951C595.4 648.951 552.892 651.134 550.959 651.256C544.105 651.931 537.202 651.931 530.349 651.256C529.91 649.432 529.261 647.665 528.415 645.99L520.043 645.958Z" fill="#312449"/>
</g>
<g style="mix-blend-mode:darken" opacity="0.1">
<path d="M561.725 651.223C563.084 651.134 584.374 650.034 597.495 649.387C597.22 649.112 596.993 648.918 596.847 648.918C595.432 648.918 552.925 651.102 550.991 651.223C550.182 651.272 546.502 651.49 542.474 651.644C546.737 652.113 560.108 651.328 561.725 651.223Z" fill="#312449"/>
</g>
<g style="mix-blend-mode:darken" opacity="0.1">
<path d="M493.139 674.536L497.313 658.892L528.803 646.758L528.448 645.95H520.043L486.547 658.892L482.373 674.536L511.024 692.331L520.043 691.272L493.139 674.536Z" fill="#312449"/>
</g>
<g style="mix-blend-mode:darken" opacity="0.1">
<path d="M564.299 687.325L555.19 688.393L569.67 697.986C569.67 697.986 572.533 696.862 576.375 695.325L564.299 687.325Z" fill="#312449"/>
</g>
<g style="mix-blend-mode:darken" opacity="0.1">
<path d="M50.0758 314.505L18.3429 355.095L14.3955 404.138L41.5338 459.952L81.8005 444.259L97.0563 477.715C97.0563 477.715 119.867 447.989 122.803 442.124C127.22 419.784 130.439 397.224 132.445 374.541C130.111 357.474 126.893 340.54 122.803 323.807C121.461 323.807 81.194 330.642 79.3578 331.031C77.5216 331.419 59.8391 334.873 59.8391 331.031C59.8391 327.188 58.0029 314.505 58.0029 314.505H50.0758Z" fill="#312449"/>
</g>
<g style="mix-blend-mode:darken" opacity="0.1">
<path d="M89.5178 331.039C90.7959 330.764 110.994 327.318 123.402 325.288C123.135 324.406 122.917 323.815 122.788 323.815C121.445 323.815 81.1781 330.651 79.3419 331.039C78.5896 331.193 75.0952 331.848 71.2529 332.357C77.3724 332.913 83.5416 332.468 89.5178 331.039Z" fill="#312449"/>
</g>
<g style="mix-blend-mode:darken" opacity="0.1">
<path d="M24.5481 404.147L28.5036 355.104L58.3275 316.94C58.1334 315.492 57.9877 314.514 57.9877 314.514H50.0606L18.3278 355.104L14.3804 404.147L41.5187 459.961L50.0688 456.628L24.5481 404.147Z" fill="#312449"/>
</g>
<g style="mix-blend-mode:darken" opacity="0.1">
<path d="M91.9532 444.26L83.3223 447.626L97.0734 477.716C97.0734 477.716 99.7832 474.182 103.423 469.353L91.9532 444.26Z" fill="#312449"/>
</g>
<g filter="url(#filter0_d_41_4)">
<path d="M436.665 403.182C435.243 408.086 433.396 412.041 433.085 416.062C431.892 431.85 428.427 447.557 431.451 463.557C432.464 468.984 430.748 471.239 425.747 473.364C423.606 474.29 421.37 474.981 419.079 475.423C403.418 478.626 387.226 478.122 371.795 473.952C367.376 472.423 363.108 470.486 359.047 468.166C353.882 465.617 351.937 461.335 351.905 455.581C351.905 433.582 351.038 411.6 351.48 389.617C351.692 378.928 353.768 368.255 355.484 357.648C356.91 350.2 359.981 343.164 364.473 337.054C371.256 334.799 378.284 335.551 385.23 335.649C398.359 335.896 411.456 334.245 424.113 330.746C430.078 329.111 435.374 326.235 438.822 320.678C440.422 318.361 441.344 315.644 441.485 312.832C441.627 310.02 440.982 307.224 439.623 304.759C431.811 289.559 420.043 283.609 403.699 288.284C380.049 295.034 361.923 308.714 351.937 331.955C347.165 343.069 343.765 344.654 332.668 341.647C329.919 341.054 327.278 340.039 324.839 338.64C313.104 330.958 301.434 323.178 289.928 315.153C286.185 312.555 285.368 308.779 286.479 304.007C288.301 296.242 291.755 288.954 296.613 282.629C312.513 261.738 331.608 243.487 353.196 228.546C365.405 219.982 379.526 216.713 393.713 213.575C411.266 209.685 428.656 208.754 446.553 212.791C464.046 216.497 479.93 225.611 491.957 238.843C499.54 247.113 506.666 255.825 513.58 264.683C522.685 276.617 528.89 290.505 531.705 305.249C539.305 341.402 526.214 369.121 498.838 391.872C488.868 400.142 477.345 402.823 464.94 403.133C456.098 403.362 447.223 403.182 436.665 403.182ZM416.022 460.714C416.415 457.772 416.97 454.617 417.232 451.43C418.049 441.624 418.523 431.817 419.602 422.011C420.517 413.643 422.151 405.356 423.328 397.021C424.031 392.118 427.038 389.601 431.5 388.849C434.252 388.324 437.051 388.083 439.852 388.13C448.285 388.326 456.703 388.604 465.103 389.11C470.697 389.669 476.339 388.727 481.448 386.381C498.511 377.784 511.439 365.134 516.326 346.371C520.51 330.353 520.69 314.009 514.266 298.09C510.742 288.908 505.849 280.312 499.753 272.593C493.526 264.977 487.675 257.034 481.088 249.712C470.857 238.434 458.729 229.985 443.497 226.274C416.088 219.508 389.904 224.035 364.62 235.999C362.144 237.326 359.782 238.857 357.56 240.576C338.633 253.88 322.6 270.24 308.07 288.071C304.327 292.664 300.192 297.42 300.012 303.827C310.95 315.132 324.157 323.994 338.764 329.83L345.743 318.144C351.3 308.861 357.184 299.774 366.206 293.481C379.412 284.263 393.991 277.366 409.795 274.98C431.827 271.711 448.759 282.841 455.411 306.998C456.707 312.05 456.27 317.391 454.169 322.165C450.018 332.2 443.333 339.294 432.644 342.709C421.07 346.517 408.954 348.422 396.769 348.348C389.398 348.348 381.945 347.564 375.048 349.051C369.197 357.223 368.51 366.31 368.052 375.201C366.876 397.086 366.108 418.987 365.323 440.888C365.389 444.354 365.651 447.814 366.108 451.25C383.187 463.345 396.671 465.878 416.022 460.714Z" fill="#424242"/>
<path d="M392.259 586.596C382.834 586.948 373.537 584.324 365.686 579.097C357.836 573.869 351.831 566.303 348.522 557.471C346.311 552.283 345.435 546.625 345.972 541.012C347.95 525.763 353.687 512.525 365.209 501.574C375.833 491.457 387.225 488.956 401.166 492.601C410.335 495.004 419.243 497.226 426.369 503.96C436.911 513.897 442.598 525.534 439.934 540.358C439.526 542.663 439.313 545 438.921 547.305C434.59 572.801 418.148 586.628 392.259 586.596ZM395.184 573.014C398.473 572.549 401.719 571.822 404.893 570.84C417.559 566.313 428.771 548.204 427.235 534.998C426.803 532.736 426.083 530.539 425.094 528.46C418.556 511.838 404.5 506.559 388.385 505.023C385.146 504.758 381.91 505.575 379.183 507.343C369.377 514.371 362.218 523.965 360.257 535.766C357.021 555.313 372.875 573.439 395.184 573.014Z" fill="#424242"/>
<path d="M416.022 460.714C396.671 465.879 383.187 463.345 366.108 451.251C365.676 447.791 365.441 444.309 365.405 440.823C366.189 418.922 366.957 397.021 368.134 375.136C368.625 366.311 369.278 357.305 375.129 348.986C382.027 347.499 389.48 348.25 396.851 348.283C409.035 348.357 421.151 346.452 432.726 342.644C443.415 339.147 450.1 332.135 454.251 322.1C456.352 317.326 456.789 311.985 455.493 306.933C448.759 282.842 431.827 271.646 409.795 274.98C393.892 277.366 379.412 284.263 366.206 293.531C357.167 299.823 351.3 308.91 345.743 318.194L338.764 329.88C324.152 324.028 310.946 315.15 300.012 303.827C300.192 297.42 304.327 292.664 308.07 288.072C322.6 270.24 338.633 253.88 357.56 240.576C359.782 238.857 362.144 237.326 364.62 235.999C389.904 224.036 416.088 219.508 443.742 226.307C458.893 230.018 471.02 238.467 481.333 249.745C487.871 257.002 493.771 264.945 499.998 272.626C506.094 280.345 510.988 288.941 514.512 298.123C520.935 314.042 520.755 330.386 516.571 346.404C511.668 365.117 498.756 377.817 481.693 386.414C476.584 388.76 470.942 389.702 465.349 389.143C456.948 388.637 448.531 388.359 440.097 388.163C437.296 388.116 434.497 388.357 431.745 388.882C427.202 389.699 424.194 392.151 423.573 397.054C422.396 405.389 420.762 413.676 419.847 422.044C418.768 431.85 418.212 441.657 417.477 451.463C416.97 454.618 416.415 457.772 416.022 460.714Z" fill="#EEEEEE"/>
<path d="M395.183 573.014C372.874 573.471 357.02 555.346 360.256 535.798C362.217 523.981 369.376 514.371 379.182 507.343C381.899 505.546 385.135 504.701 388.384 504.941C404.499 506.477 418.506 511.756 425.093 528.378C426.082 530.457 426.802 532.654 427.234 534.916C428.77 548.122 417.558 566.231 404.892 570.758C401.721 571.767 398.474 572.522 395.183 573.014Z" fill="#EEEEEE"/>
</g>
<defs>
<filter id="filter0_d_41_4" x="286.021" y="207.176" width="271.82" height="384.451" filterUnits="userSpaceOnUse" color-interpolation-filters="sRGB">
<feFlood flood-opacity="0" result="BackgroundImageFix"/>
<feColorMatrix in="SourceAlpha" type="matrix" values="0 0 0 0 0 0 0 0 0 0 0 0 0 0 0 0 0 0 127 0" result="hardAlpha"/>
<feOffset dx="20" dy="1"/>
<feGaussianBlur stdDeviation="2"/>
<feComposite in2="hardAlpha" operator="out"/>
<feColorMatrix type="matrix" values="0 0 0 0 0 0 0 0 0 0 0 0 0 0 0 0 0 0 0.25 0"/>
<feBlend mode="normal" in2="BackgroundImageFix" result="effect1_dropShadow_41_4"/>
<feBlend mode="normal" in="SourceGraphic" in2="effect1_dropShadow_41_4" result="shape"/>
</filter>
</defs>
</svg>
