<svg width="800" height="800" viewBox="0 0 800 800" fill="none" xmlns="http://www.w3.org/2000/svg">
<path d="M400 800C620.914 800 800 620.914 800 400C800 179.086 620.914 0 400 0C179.086 0 0 179.086 0 400C0 620.914 179.086 800 400 800Z" fill="#BCE1D6"/>
<g style="mix-blend-mode:darken" opacity="0.12">
<path d="M399.73 800C480.305 799.993 558.988 775.576 625.411 729.964C691.834 684.353 742.88 619.688 771.822 544.49C800.765 469.292 806.246 387.09 787.544 308.715C768.842 230.34 726.834 159.47 667.056 105.443C733.407 178.655 770.095 273.964 769.96 372.769C769.96 592.981 562.487 795.85 342.243 795.85" fill="black"/>
</g>
<path opacity="0.2" d="M398.714 1.70703C318.145 1.71856 239.469 26.1375 173.053 71.7465C106.636 117.356 55.5939 182.015 26.6513 257.206C-2.29132 332.397 -7.77663 414.592 10.9181 492.962C29.6128 571.333 71.6103 642.201 131.378 696.231C65.0246 623.021 28.3358 527.711 28.4736 428.905C28.4736 208.704 235.946 5.82419 456.202 5.82419" fill="#F0F5F9"/>
</svg>
