<svg width="800" height="800" viewBox="0 0 800 800" fill="none" xmlns="http://www.w3.org/2000/svg">
<path d="M400.004 800.008C620.92 800.008 800.008 620.92 800.008 400.004C800.008 179.088 620.92 0 400.004 0C179.088 0 0 179.088 0 400.004C0 620.92 179.088 800.008 400.004 800.008Z" fill="#E2BA8F"/>
<mask id="mask0_3_212" style="mask-type:luminance" maskUnits="userSpaceOnUse" x="0" y="0" width="801" height="801">
<path d="M400.004 800.008C620.92 800.008 800.008 620.92 800.008 400.004C800.008 179.088 620.92 0 400.004 0C179.088 0 0 179.088 0 400.004C0 620.92 179.088 800.008 400.004 800.008Z" fill="white"/>
</mask>
<g mask="url(#mask0_3_212)">
<path opacity="0.4" d="M-34.5559 223.039C-34.5559 223.039 290.899 96.5406 480.189 -21.8754C669.48 -140.291 654.468 2.10936 654.468 2.10936C654.468 2.10936 70.2981 346.292 -62.1248 324.853C-194.548 303.414 -34.5559 223.039 -34.5559 223.039Z" fill="#F0F5F9"/>
<path opacity="0.7" d="M56.3077 578.254C56.3077 578.254 238.183 752.986 788.654 358.725C919.891 264.739 891.028 367.731 891.028 367.731C891.028 367.731 231.732 798.418 37.2089 624.716C-47.0714 549.458 56.3077 578.254 56.3077 578.254Z" fill="#CBA780"/>
<path opacity="0.4" d="M709.202 849.56C709.202 849.56 597.922 623.217 -54.0914 805.792C-209.535 849.321 -147.237 762.371 -147.237 762.371C-147.237 762.371 619.509 582.753 743.016 812.4C796.531 911.924 709.202 849.56 709.202 849.56Z" fill="#CBA780"/>
<path opacity="0.2" d="M-26.7534 363.15C-26.7534 363.15 521.238 301.165 756.809 164.787C992.38 28.4094 811.354 206.94 811.354 206.94C811.354 206.94 471.653 303.645 -29.2254 410.262C-530.104 516.879 -26.7534 363.15 -26.7534 363.15Z" fill="#F0F5F9"/>
</g>
<g style="mix-blend-mode:darken" opacity="0.1">
<path d="M400.004 800C480.837 799.998 559.773 775.506 626.41 729.75C693.046 683.995 744.257 619.125 773.293 543.686C802.329 468.248 807.828 385.783 789.065 307.158C770.302 228.532 728.158 157.437 668.187 103.239C734.954 176.563 771.79 272.263 771.417 371.43C770.346 592.92 560.729 797.207 342.32 795.872" fill="black"/>
</g>
</svg>
