<svg width="800" height="800" viewBox="0 0 800 800" fill="none" xmlns="http://www.w3.org/2000/svg">
<path d="M400.004 800.008C620.92 800.008 800.008 620.92 800.008 400.004C800.008 179.088 620.92 0 400.004 0C179.088 0 0 179.088 0 400.004C0 620.92 179.088 800.008 400.004 800.008Z" fill="#4462AB"/>
<mask id="mask0_3_24" style="mask-type:luminance" maskUnits="userSpaceOnUse" x="0" y="0" width="801" height="801">
<path d="M400.004 800.008C620.92 800.008 800.008 620.92 800.008 400.004C800.008 179.088 620.92 0 400.004 0C179.088 0 0 179.088 0 400.004C0 620.92 179.088 800.008 400.004 800.008Z" fill="white"/>
</mask>
<g mask="url(#mask0_3_24)">
<g style="mix-blend-mode:darken" opacity="0.07">
<path d="M-18.4559 189.143C-18.4559 189.143 554.327 229.375 829.563 189.143C1104.8 148.91 800 281.341 800 281.341C800 281.341 449.91 264.574 -0.0409546 329.953C-449.992 395.332 -18.4559 189.143 -18.4559 189.143Z" fill="black"/>
</g>
<g style="mix-blend-mode:darken" opacity="0.07">
<path d="M-54.149 517.167C-54.149 517.167 508.665 630.953 786.792 626.561C1064.92 622.17 745.596 714.179 745.596 714.179C745.596 714.179 400.589 652.383 -53.9925 659.189C-508.574 665.995 -54.149 517.167 -54.149 517.167Z" fill="black"/>
</g>
<path opacity="0.1" d="M-2.7187 -91.8193C-2.7187 -91.8193 559.691 42.2268 841.279 -9.26916C1122.87 -60.7651 794.315 167.267 794.315 167.267C794.315 167.267 449.086 100.528 -11.1393 183.985C-471.365 267.441 -2.7187 -91.8193 -2.7187 -91.8193Z" fill="white"/>
<path opacity="0.1" d="M744.5 596.916C744.5 596.916 182.09 462.87 -99.49 514.366C-381.07 565.862 -52.5257 337.838 -52.5257 337.838C-52.5257 337.838 292.703 404.577 752.937 321.112C1213.17 237.648 744.5 596.916 744.5 596.916Z" fill="white"/>
<path opacity="0.1" d="M723.209 988.434C723.209 988.434 175.037 804.647 -110.028 830.757C-395.094 856.868 -47.4588 659.132 -47.4588 659.132C-47.4588 659.132 290.437 756.43 756.265 714.492C1222.09 672.553 723.209 988.434 723.209 988.434Z" fill="white"/>
</g>
<g style="mix-blend-mode:darken" opacity="0.2">
<path d="M399.732 800C480.308 800.002 558.994 775.591 625.42 729.983C691.846 684.376 742.895 619.713 771.84 544.515C800.784 469.318 806.266 387.115 787.563 308.74C768.859 230.365 726.848 159.496 667.066 105.472C733.423 178.68 770.114 273.992 769.976 372.798C769.976 593.011 562.451 795.88 342.246 795.88" fill="black"/>
</g>
</svg>
