<svg width="624" height="622" viewBox="0 0 624 622" fill="none" xmlns="http://www.w3.org/2000/svg">
<path d="M145.5 45.25C188.489 20.2188 236.542 5.14093 286.125 1.12502C339.25 -1.49998 388 11 455.625 43.375C523.25 75.75 560.625 106.625 589.25 159.75C617.875 212.875 633.375 252 617.75 321.125C602.125 390.25 597.375 459.75 569.625 507.75C541.875 555.75 495.5 589 426.75 606.25C358 623.5 260.25 634.75 175.875 588.25C91.5 541.75 32.125 472.625 10.25 377C-11.625 281.375 6.37503 231.625 22.75 186.75C47.2384 127.519 90.3206 77.8564 145.5 45.25Z" fill="#1D1D1B"/>
<path d="M168.875 52.3751C198.72 35.8915 231.275 24.8845 265 19.8751C315 14.0001 395.875 36.3751 404.375 40.2501C412.875 44.1251 420 46.5001 416.875 48.8751C413.75 51.2501 385.25 76.1251 375.125 77.7501C365 79.3751 329.875 70.7501 303.25 71.8751C276.625 73.0001 258.75 78.1251 245.875 78.1251C233 78.1251 214.625 64.0001 202.125 62.8751C189.625 61.7501 163 55.5001 168.875 52.3751Z" fill="#4EAE4D"/>
<path d="M144.25 71.8751C161.513 66.8139 180.038 68.328 196.25 76.1251C216.5 87.1251 214.25 91.7501 241.875 91.3751C269.5 91.0001 283 86.3751 291.125 88.2501C299.25 90.1251 333.75 105.125 364.25 99.2501C383.497 96.0572 401.78 88.5815 417.75 77.3751C426.75 71.5001 432.125 61.7501 437.625 62.5001C443.125 63.2501 492.75 92.6251 491.875 95.7501C486.465 103.72 479.107 110.174 470.5 114.5C454.734 125.02 442.564 140.113 435.625 157.75C429.375 176.125 425.875 231.25 434.125 236.75C442.375 242.25 463.375 234.375 471.625 240.625C479.875 246.875 481.75 266.375 495.5 268C509.25 269.625 515 259.375 527.5 268C540 276.625 540 283.125 559.5 283.625C579 284.125 597 279.625 598.125 283.625C599.405 289.601 598.883 295.822 596.625 301.5C594.625 302.75 528.625 310.5 513 311.375C497.375 312.25 500.5 315.625 491.875 311.375C483.25 307.125 469.625 291 449.5 287.875C429.375 284.75 367.875 280.875 355.75 280.875C343.625 280.875 340.125 280.875 338.875 286.75C337.625 292.625 340.125 351.5 333.875 370.75C327.625 390 331.875 421.5 354.5 430.5C377.125 439.5 400.625 444.125 403.75 452.375C406.875 460.625 417.875 514.875 427.625 533.25C437.375 551.625 451 572.625 446.375 576.5C422.506 586.714 397.212 593.206 371.375 595.75C347.382 598.705 323.118 598.705 299.125 595.75C299.125 595.75 284.625 520.75 280.75 514C276.549 504.855 274.783 494.779 275.625 484.75C277.25 479.625 304.875 423.875 301.375 409.75C297.875 395.625 292.375 381.25 279.5 377.75C266.625 374.25 245.125 377.75 210.375 377.75C188 378.067 165.646 376.225 143.625 372.25C136.625 370.75 132.625 372.25 129.5 368.75C126.375 365.25 101 318.75 104.5 314.5C108 310.25 143.625 300 145.125 291.75C146.625 283.5 144.375 263.625 153.375 262.875C162.375 262.125 201.75 267.625 214.25 261C226.75 254.375 228.375 239.125 228.75 225.75C229.125 212.375 224.125 183.25 218.25 177.75C212.375 172.25 155.75 155.125 134.25 143.75C112.75 132.375 94.625 123.5 97 116C109.488 98.1464 125.585 83.1138 144.25 71.8751Z" fill="#85BFE9"/>
<path d="M168.125 98.4999C174.875 97.6249 175.5 102.875 173.125 107.5C170.75 112.125 173.125 129 180.625 128.625C207.011 122.654 233.723 118.23 260.625 115.375C294.827 117.016 328.565 123.975 360.625 136C370 141.125 374.375 161 375.125 166.875C366.122 191.058 354.6 214.227 340.75 236C337.25 237.875 300.875 223.5 274.75 211C248.625 198.5 237.25 192.625 236.125 187.5C235.053 180.198 232.949 173.085 229.875 166.375C227.5 165.25 192.375 162.875 175.5 152.75C158.625 142.625 143.5 126.125 146.625 119.125C151.638 110.309 159.109 103.143 168.125 98.4999Z" fill="#1D1D1B"/>
<path d="M216.5 134.375C246.702 130.347 277.377 131.658 307.125 138.25C347 146.125 353.25 152.75 352.125 162.5C351 172.25 336.125 212.5 330.625 210.5C307.901 202.949 285.724 193.844 264.25 183.25C261.5 179.25 260.625 159.75 249 156.25C237.375 152.75 213 145.25 204.875 142.125C196.75 139 198.625 135.875 200.5 135.875C202.375 135.875 216.5 134.375 216.5 134.375Z" fill="#4EAE4D"/>
<path d="M506.75 101.125C509.375 100.25 543.5 114.5 566.875 159C590.25 203.5 597.75 258.25 595 263.25C592.25 268.25 583.75 268.75 575.875 266.375C568 264 537 246.875 530.25 246.875C523.5 246.875 512.625 252.75 508 246.875C503.375 241 489.25 223.5 475.125 223.5C461 223.5 458 225.875 455.625 222.75C453.25 219.625 445.5 153.625 460.25 141.5C475 129.375 488 121.625 493.875 116.5C499.75 111.375 503.25 102.375 506.75 101.125Z" fill="#4EAE4D"/>
<path d="M358.375 298.5C362.875 298.5 429.875 293.5 443.125 306.375C456.375 319.25 467.375 333.25 478.625 332.875C489.875 332.5 593.5 323.5 593.5 327.5C593.5 331.5 581.75 421.25 563.75 466.875C549.647 502.311 525.652 532.945 494.625 555.125C480.25 563.375 465.375 566.5 464.25 564.125C451.141 540.946 441.497 515.973 435.625 490C427.125 449.75 424.75 431 411.5 427.5C398.25 424 365.375 416.25 359.125 408.375C354.897 401.281 352.492 393.25 352.125 385C352.125 385 355.625 336.5 355.625 326C355.625 315.5 356 298.5 358.375 298.5Z" fill="#4EAE4D"/>
<path d="M129.875 388.625C149.11 396.316 169.66 400.179 190.375 400C231.75 400.75 272.375 396.125 276.75 401.125C281.125 406.125 280.25 423.375 271.25 439.875C265.577 450.324 260.608 461.139 256.375 472.25C244.031 460.833 230.825 450.386 216.875 441C215.252 441.692 213.931 442.942 213.151 444.525C212.371 446.107 212.185 447.917 212.625 449.625C214.25 453.125 250.125 477.375 251.75 480.5C251.991 487.814 251.573 495.136 250.5 502.375C238.755 491.542 226.221 481.598 213 472.625C208.375 471.875 205.25 483.25 206.75 485.125C208.25 487 250.875 516.375 256.75 521.5C262.554 531.132 266.141 541.935 267.25 553.125C266.125 553.125 218.5 514.5 215.75 514C213 513.5 212.25 526.5 212.25 526.5C212.25 526.5 268.5 566.375 270.375 569.5C273.37 577.015 275.224 584.936 275.875 593C260.713 590.063 245.73 586.265 231 581.625C215.375 575.75 201.625 572.625 201.625 571.5C201.625 570.375 187 524.25 166.5 504.25C155.189 494.619 145.262 483.472 137 471.125C134.611 455.727 133.15 440.199 132.625 424.625C132.125 414 127.5 388.625 129.875 388.625Z" fill="#4EAE4D"/>
<path d="M43.5 391C45.875 386.375 75.5 394.125 89.625 399.625C103.75 405.125 108.375 412.125 108.75 423C109.125 433.875 107.125 481.25 116.875 489.875C132.422 500.675 145.501 514.649 155.25 530.875C160.911 539.241 165.136 548.493 167.75 558.25C138.739 540.552 113.61 517.166 93.875 489.5C54 437.875 42.375 393.375 43.5 391Z" fill="#85BFE9"/>
<path d="M32.125 363.25C20.4351 323.961 19.9157 282.193 30.625 242.625C47.75 171.5 80.625 133.625 83.375 134C86.125 134.375 150.875 171.5 177.125 184C203.375 196.5 204.875 196.5 206.75 202C208.278 215.952 207.475 230.061 204.375 243.75C202.125 244.875 155.25 242.625 141.875 243.75C128.5 244.875 124.5 263.625 125.5 271.125C126.5 278.625 127.125 282 124 284.375C120.875 286.75 79 298 76.75 309.375C74.5 320.75 106.375 376.5 101.75 378.125C97.125 379.75 44.625 376.125 32.125 363.25Z" fill="#4EAE4D"/>
<path d="M54 225.75C57.2917 210.094 62.1495 194.809 68.5 180.125C74.75 170.75 77.5 168.75 80.25 169.5C83 170.25 90.75 173.875 90 176.125C89.25 178.375 75.875 204.25 72.375 215.625C68.875 227 72.375 227 67.375 228.125C62.375 229.25 55.625 228.5 54 225.75Z" fill="#1D1D1B"/>
<path d="M412 105.875C414 104.125 443.625 96.875 445.625 99.625C447.625 102.375 449.875 105.125 447.875 106.625C437.462 111.825 426.469 115.77 415.125 118.375C412.625 117.125 409.5 107.75 412 105.875Z" fill="#1D1D1B"/>
<path d="M392.75 197.625C394.625 199.625 411.125 226.125 409.125 228.5C407.125 230.875 409.125 234.375 404.875 232.375C396.509 224.642 389.938 215.17 385.625 204.625C387 201.5 392.75 197.625 392.75 197.625Z" fill="#1D1D1B"/>
<path d="M374.5 215.625C382.615 223.508 389.826 232.27 396 241.75C396 244.125 396 247.625 392.125 246.5C383.176 240.149 375.322 232.38 368.875 223.5C368.875 221.5 374.5 215.25 374.5 215.625Z" fill="#1D1D1B"/>
<path d="M528.625 156.625C539.936 159.623 550.552 164.803 559.875 171.875C559.875 174.25 561.125 180.5 558 179.25C554.875 178 526.25 166.75 525.125 165.25C524 163.75 528.25 157 528.625 156.625Z" fill="#1D1D1B"/>
<path d="M525.875 186C526.875 184.625 575.875 213.25 575.875 217.625C575.875 222 580.25 225 575.125 224.25C556.732 216.665 538.968 207.637 522 197.25C520.5 194.875 524.5 187.875 525.875 186Z" fill="#1D1D1B"/>
<path d="M521.25 211C542.542 219.696 562.828 230.677 581.75 243.75C582.5 247.25 585.25 251.125 580.25 250.75C559.023 242.277 538.392 232.38 518.5 221.125C517.375 219.5 519.625 211.75 521.25 211Z" fill="#1D1D1B"/>
<path d="M533 355.125C546.789 364.786 559.015 376.506 569.25 389.875C568.125 393 569.25 394.5 565.75 393.375C551.727 383.271 538.671 371.889 526.75 359.375C527.5 357.375 531 355.875 533 355.125Z" fill="#1D1D1B"/>
<path d="M513.375 378.875C528.379 390.887 542.384 404.097 555.25 418.375C555.25 421.5 553.625 424.25 552.125 423.875C537.118 412.169 522.763 399.65 509.125 386.375C510.358 383.775 511.778 381.269 513.375 378.875Z" fill="#1D1D1B"/>
<path d="M500.875 404.25C516.198 416.635 530.228 430.539 542.75 445.75C541.875 448.875 543.5 450.75 539.625 450.375C524.138 438.15 509.402 425.001 495.5 411C497.042 408.562 498.844 406.299 500.875 404.25Z" fill="#1D1D1B"/>
<path d="M491.125 425C506.421 437.489 520.677 451.201 533.75 466C533.75 469.125 532.5 471.125 531 469.875C514.29 457.909 498.264 445.013 483 431.25C483.707 429.601 484.826 428.16 486.248 427.066C487.67 425.972 489.349 425.261 491.125 425Z" fill="#1D1D1B"/>
<path d="M483.375 462.5C497.528 472.149 510.384 483.575 521.625 496.5C521.625 499.25 519.625 501.125 518.5 500.75C504.592 491.144 491.276 480.709 478.625 469.5C478.25 467.125 482.5 462.875 483.375 462.5Z" fill="#1D1D1B"/>
<path d="M474.5 485.125C476.625 485.125 515.125 518.75 512 521.875C508.875 525 510.5 526.5 507.375 525.375C493.321 515.402 480.223 504.145 468.25 491.75C469.625 489.875 472.375 485.125 474.5 485.125Z" fill="#1D1D1B"/>
<path d="M351.75 453.875C352.875 452.125 368.125 457.75 367.75 461.375C367.375 465 367.75 465.625 365.75 465.625C359.122 464.825 352.665 462.968 346.625 460.125C346.625 458.625 350.875 455.125 351.75 453.875Z" fill="#1D1D1B"/>
<path d="M326.25 502C328.539 501.009 331.006 500.498 333.5 500.498C335.994 500.498 338.461 501.009 340.75 502C346.625 504.75 355.25 514.5 363 515.75C370.75 517 376.75 512.25 378.625 513.375C379.628 513.932 380.387 514.842 380.757 515.927C381.126 517.013 381.079 518.197 380.625 519.25C379.375 521.25 378.625 523.125 375.5 523.875C369.245 525.72 362.516 525.047 356.75 522C349.5 517.125 345 511 337 511C329 511 329.875 512.5 328.375 511C326.875 509.5 323.125 504.625 326.25 502Z" fill="#1D1D1B"/>
<path d="M237 412.875C240.125 414.875 262.75 434.75 262 437.875C261.25 441 259.625 444.125 257.25 443.375C247.273 437.084 238.227 429.426 230.375 420.625C230.25 417.625 237 412.875 237 412.875Z" fill="#1D1D1B"/>
<path d="M214.625 291.375C216.125 291.375 249.75 343.75 247 346.5C244.25 349.25 242.75 352 241.125 350.375C228.253 332.993 216.4 314.879 205.625 296.125C208.044 293.626 211.197 291.962 214.625 291.375Z" fill="#1D1D1B"/>
<path d="M227.5 286C227.5 284.5 234.875 281.25 237.25 283.625C244.379 294.185 250.134 305.61 254.375 317.625C253.25 319.875 254.375 323.5 251.25 321.125C242.221 310.209 234.267 298.446 227.5 286Z" fill="#1D1D1B"/>
<path d="M296.25 282.375C297.25 281 308.75 269.875 312.25 269.875C315.75 269.875 324.75 269.875 323.625 272.625C322.5 275.375 306 296.5 302.875 294.5C299.346 291.334 297.008 287.055 296.25 282.375Z" fill="#1D1D1B"/>
</svg>
