<svg width="800" height="488" viewBox="0 0 800 488" fill="none" xmlns="http://www.w3.org/2000/svg">
<path d="M400.012 487.476C534.625 487.476 643.75 378.35 643.75 243.738C643.75 109.125 534.625 0 400.012 0C265.4 0 156.274 109.125 156.274 243.738C156.274 378.35 265.4 487.476 400.012 487.476Z" fill="#FAC731"/>
<mask id="mask0_3_140" style="mask-type:luminance" maskUnits="userSpaceOnUse" x="156" y="0" width="488" height="488">
<path d="M400.012 487.476C534.625 487.476 643.75 378.35 643.75 243.738C643.75 109.125 534.625 0 400.012 0C265.4 0 156.274 109.125 156.274 243.738C156.274 378.35 265.4 487.476 400.012 487.476Z" fill="white"/>
</mask>
<g mask="url(#mask0_3_140)">
<g style="mix-blend-mode:darken" opacity="0.2">
<path d="M145.028 369.799C145.028 369.799 494.047 406.057 661.759 369.799C829.47 333.54 643.745 452.899 643.745 452.899C643.745 452.899 430.422 437.787 156.274 496.713C-117.873 555.64 145.028 369.799 145.028 369.799Z" fill="#312449"/>
</g>
<path opacity="0.4" d="M150.621 70.9504C150.621 70.9504 495.533 130.123 664.901 121.251C834.27 112.38 641.305 177.246 641.305 177.246C641.305 177.246 430.02 145.978 153.172 160.241C-123.677 174.504 150.621 70.9504 150.621 70.9504Z" fill="#F0F5F9"/>
</g>
<g style="mix-blend-mode:darken" opacity="0.1">
<path d="M399.993 487.471C449.248 487.47 497.347 472.547 537.952 444.667C578.557 416.787 609.762 377.259 627.456 331.291C645.149 285.324 648.5 235.074 637.067 187.164C625.635 139.254 599.955 95.9325 563.411 62.9075C604.095 107.587 626.542 165.9 626.319 226.326C625.661 361.289 497.933 485.769 364.849 484.955" fill="black"/>
</g>
<path d="M642.485 263.348C663.712 269.127 675.772 275.749 675.772 282.788C675.772 305.31 552.306 323.57 400.002 323.57C247.699 323.57 124.234 305.31 124.234 282.788C124.234 275.809 136.082 269.232 156.968 263.499L156.265 235.886C61.2357 246.7 0 263.69 0 282.793C0 315.462 179.088 341.945 400.002 341.945C620.917 341.945 800 315.462 800 282.793C800 263.715 738.749 246.7 643.735 235.886" fill="#F0F5F9"/>
</svg>
