<svg width="800" height="797" viewBox="0 0 800 797" fill="none" xmlns="http://www.w3.org/2000/svg">
<path d="M398.406 796.812C618.44 796.812 796.812 618.44 796.812 398.406C796.812 178.372 618.44 0 398.406 0C178.372 0 0 178.372 0 398.406C0 618.44 178.372 796.812 398.406 796.812Z" fill="#B17341"/>
<g style="mix-blend-mode:darken" opacity="0.1">
<path d="M367.842 294.38C390.305 294.38 408.514 276.171 408.514 253.708C408.514 231.246 390.305 213.036 367.842 213.036C345.38 213.036 327.17 231.246 327.17 253.708C327.17 276.171 345.38 294.38 367.842 294.38Z" fill="#312449"/>
</g>
<g style="mix-blend-mode:darken" opacity="0.1">
<path d="M339.517 253.708C339.532 244.011 343.02 234.64 349.348 227.293C355.677 219.945 364.428 215.108 374.016 213.656C371.977 213.289 369.913 213.082 367.842 213.036C357.055 213.036 346.71 217.321 339.083 224.949C331.455 232.576 327.17 242.921 327.17 253.708C327.17 264.495 331.455 274.84 339.083 282.467C346.71 290.095 357.055 294.38 367.842 294.38C369.913 294.33 371.978 294.119 374.016 293.747C364.429 292.299 355.678 287.464 349.349 280.118C343.021 272.773 339.533 263.404 339.517 253.708Z" fill="#312449"/>
</g>
<g style="mix-blend-mode:darken" opacity="0.1">
<path d="M398.406 154.628C410.004 154.628 419.406 145.226 419.406 133.628C419.406 122.03 410.004 112.628 398.406 112.628C386.808 112.628 377.406 122.03 377.406 133.628C377.406 145.226 386.808 154.628 398.406 154.628Z" fill="#312449"/>
</g>
<g style="mix-blend-mode:darken" opacity="0.1">
<path d="M383.769 133.628C383.78 128.621 385.583 123.784 388.853 119.992C392.123 116.2 396.643 113.704 401.594 112.957C400.542 112.764 399.476 112.655 398.406 112.628C395.648 112.628 392.917 113.172 390.37 114.227C387.822 115.282 385.507 116.829 383.557 118.779C381.607 120.729 380.06 123.044 379.005 125.592C377.949 128.14 377.406 130.871 377.406 133.628C377.406 136.386 377.949 139.117 379.005 141.665C380.06 144.213 381.607 146.528 383.557 148.478C385.507 150.428 387.822 151.975 390.37 153.03C392.917 154.085 395.648 154.628 398.406 154.628C399.475 154.607 400.541 154.501 401.594 154.312C396.641 153.565 392.119 151.068 388.849 147.273C385.579 143.479 383.777 138.638 383.769 133.628Z" fill="#312449"/>
</g>
<g style="mix-blend-mode:darken" opacity="0.1">
<path d="M144.369 492.046C184.48 492.046 216.996 459.53 216.996 419.419C216.996 379.308 184.48 346.792 144.369 346.792C104.258 346.792 71.7417 379.308 71.7417 419.419C71.7417 459.53 104.258 492.046 144.369 492.046Z" fill="#312449"/>
</g>
<g style="mix-blend-mode:darken" opacity="0.1">
<path d="M93.7792 419.406C93.8079 402.091 100.037 385.358 111.339 372.239C122.641 359.12 138.267 350.483 155.388 347.892C151.743 347.248 148.056 346.88 144.356 346.791C134.212 346.558 124.131 348.452 114.764 352.353C105.396 356.253 96.9496 362.073 89.9685 369.437C82.9874 376.801 77.6265 385.546 74.2315 395.108C70.8364 404.67 69.4824 414.838 70.2567 424.955C71.031 435.073 73.9164 444.916 78.727 453.85C83.5377 462.784 90.1669 470.611 98.1873 476.827C106.208 483.043 115.441 487.51 125.293 489.939C135.145 492.369 145.397 492.707 155.388 490.933C138.263 488.346 122.632 479.709 111.329 466.586C100.026 453.464 93.7997 436.725 93.7792 419.406Z" fill="#312449"/>
</g>
<g style="mix-blend-mode:darken" opacity="0.1">
<path d="M615.769 454.006C641.662 454.006 662.652 433.015 662.652 407.122C662.652 381.23 641.662 360.239 615.769 360.239C589.876 360.239 568.886 381.23 568.886 407.122C568.886 433.015 589.876 454.006 615.769 454.006Z" fill="#312449"/>
</g>
<g style="mix-blend-mode:darken" opacity="0.1">
<path d="M583.118 407.122C583.142 395.947 587.163 385.148 594.456 376.679C601.748 368.21 611.83 362.63 622.879 360.948C616.138 359.762 609.219 360.067 602.609 361.841C595.999 363.615 589.857 366.814 584.615 371.215C579.373 375.616 575.158 381.11 572.266 387.314C569.375 393.517 567.876 400.278 567.876 407.122C567.876 413.967 569.375 420.728 572.266 426.931C575.158 433.134 579.373 438.629 584.615 443.03C589.857 447.431 595.999 450.63 602.609 452.404C609.219 454.178 616.138 454.482 622.879 453.297C611.83 451.615 601.748 446.035 594.456 437.566C587.163 429.097 583.142 418.298 583.118 407.122Z" fill="#312449"/>
</g>
<mask id="mask0_3_164" style="mask-type:luminance" maskUnits="userSpaceOnUse" x="0" y="0" width="797" height="797">
<path d="M398.406 796.812C618.44 796.812 796.812 618.44 796.812 398.406C796.812 178.372 618.44 0 398.406 0C178.372 0 0 178.372 0 398.406C0 618.44 178.372 796.812 398.406 796.812Z" fill="white"/>
</mask>
<g mask="url(#mask0_3_164)">
<g opacity="0.6">
<g style="mix-blend-mode:darken" opacity="0.1">
<path d="M159.853 760.328C199.964 760.328 232.481 727.811 232.481 687.7C232.481 647.59 199.964 615.073 159.853 615.073C119.742 615.073 87.2261 647.59 87.2261 687.7C87.2261 727.811 119.742 760.328 159.853 760.328Z" fill="#312449"/>
</g>
<g style="mix-blend-mode:darken" opacity="0.1">
<path d="M109.276 687.688C109.304 670.374 115.532 653.643 126.831 640.524C138.13 627.406 153.754 618.767 170.872 616.174C167.233 615.524 163.549 615.156 159.853 615.073C150.236 614.946 140.689 616.731 131.767 620.323C122.845 623.916 114.725 629.245 107.88 636.001C101.034 642.757 95.598 650.806 91.888 659.679C88.178 668.553 86.2675 678.076 86.2675 687.694C86.2675 697.312 88.178 706.835 91.888 715.708C95.598 724.582 101.034 732.631 107.88 739.387C114.725 746.143 122.845 751.472 131.767 755.064C140.689 758.657 150.236 760.442 159.853 760.315C163.549 760.228 167.233 759.856 170.872 759.201C153.753 756.61 138.128 747.972 126.828 734.853C115.529 721.734 109.302 705.002 109.276 687.688Z" fill="#312449"/>
</g>
</g>
<g style="mix-blend-mode:darken" opacity="0.1">
<path d="M662.652 725.424C702.763 725.424 735.279 692.908 735.279 652.797C735.279 612.686 702.763 580.17 662.652 580.17C622.541 580.17 590.025 612.686 590.025 652.797C590.025 692.908 622.541 725.424 662.652 725.424Z" fill="#312449"/>
</g>
<g style="mix-blend-mode:darken" opacity="0.1">
<path d="M612.075 652.861C612.096 635.545 618.32 618.81 629.621 605.689C640.921 592.569 656.549 583.933 673.671 581.347C663.215 579.479 652.478 579.926 642.214 582.658C631.95 585.389 622.41 590.338 614.266 597.156C606.123 603.974 599.573 612.495 595.079 622.118C590.585 631.742 588.256 642.233 588.256 652.854C588.256 663.475 590.585 673.967 595.079 683.59C599.573 693.214 606.123 701.734 614.266 708.552C622.41 715.37 631.95 720.319 642.214 723.051C652.478 725.782 663.215 726.23 673.671 724.362C656.551 721.776 640.925 713.141 629.625 700.024C618.325 686.906 612.099 670.174 612.075 652.861Z" fill="#312449"/>
</g>
</g>
<g style="mix-blend-mode:darken" opacity="0.2">
<path d="M401.594 796.812C482.106 796.813 560.728 772.421 627.101 726.85C693.473 681.278 744.481 616.666 773.402 541.529C802.323 466.391 807.801 384.254 789.112 305.942C770.423 227.63 728.446 156.818 668.712 102.837C735.219 175.863 771.911 271.183 771.536 369.955C770.461 590.556 561.688 794.029 344.148 792.701" fill="black"/>
</g>
</svg>
