<svg width="801" height="801" viewBox="0 0 801 801" fill="none" xmlns="http://www.w3.org/2000/svg">
<path d="M399.997 799.994C620.909 799.994 799.994 620.909 799.994 399.997C799.994 179.085 620.909 0 399.997 0C179.085 0 0 179.085 0 399.997C0 620.909 179.085 799.994 399.997 799.994Z" fill="#F4D0B1"/>
<mask id="mask0_3_115" style="mask-type:luminance" maskUnits="userSpaceOnUse" x="0" y="0" width="800" height="800">
<path d="M399.997 799.994C620.909 799.994 799.994 620.909 799.994 399.997C799.994 179.085 620.909 0 399.997 0C179.085 0 0 179.085 0 399.997C0 620.909 179.085 799.994 399.997 799.994Z" fill="white"/>
</mask>
<g mask="url(#mask0_3_115)">
<path opacity="0.5" d="M-7.68359 62.0032C428.203 46.0065 864.575 75.1096 1294.48 148.849" stroke="#DCB98E" stroke-width="38.642" stroke-miterlimit="10"/>
<path opacity="0.5" d="M-46.8462 719.723C389.05 703.722 825.433 732.823 1255.35 806.562" stroke="#DCB98E" stroke-width="38.642" stroke-miterlimit="10"/>
<path d="M-152.783 799.671C282.272 768.246 719.411 781.876 1151.66 840.346" stroke="#DA5423" stroke-width="67.134" stroke-miterlimit="10"/>
<path d="M-111.148 510.271L82.5142 533.416C287.445 557.852 494.554 557.852 699.485 533.416L893.154 510.278" stroke="#EF8F4D" stroke-width="61.5385" stroke-miterlimit="10"/>
<path opacity="0.3" d="M893.154 275.489L699.485 252.351C494.554 227.911 287.445 227.911 82.5142 252.351L-111.148 275.489" stroke="#DCB98E" stroke-width="61.5385" stroke-miterlimit="10"/>
<path opacity="0.3" d="M893.154 345.417L699.485 322.26C494.554 297.827 287.445 297.827 82.5142 322.26L-111.148 345.399" stroke="#DCB98E" stroke-width="22.3759" stroke-miterlimit="10"/>
<path d="M893.154 216.113L699.485 192.975C494.554 168.535 287.445 168.535 82.5142 192.975L-111.148 216.113" stroke="#EF8F4D" stroke-width="11.1911" stroke-miterlimit="10"/>
<path d="M893.154 113.547L699.485 90.4085C494.554 65.969 287.445 65.969 82.5142 90.4085L-111.148 113.547" stroke="#EF8F4D" stroke-width="39.1625" stroke-miterlimit="10"/>
<path d="M-111.148 443.361L82.5142 466.499C287.445 490.939 494.554 490.939 699.485 466.499L893.154 443.361" stroke="#EF8F4D" stroke-width="11.1911" stroke-miterlimit="10"/>
</g>
<g style="mix-blend-mode:darken" opacity="0.2">
<path d="M400.003 800.019C480.844 800.028 559.79 775.541 626.436 729.785C693.082 684.03 744.299 619.154 773.337 543.708C802.375 468.263 807.871 385.789 789.1 307.158C770.329 228.527 728.172 157.429 668.186 103.235C734.757 176.68 771.567 272.299 771.427 371.424C771.427 592.333 563.222 795.86 342.325 795.86" fill="black"/>
</g>
<path d="M296.399 582.229C297.679 560.568 262.214 540.851 217.185 538.189C172.156 535.527 134.614 550.928 133.334 572.589C132.053 594.25 167.518 613.967 212.548 616.629C257.577 619.291 295.118 603.89 296.399 582.229Z" fill="#EF8F4D" stroke="#F3CDA6" stroke-width="14.5521" stroke-miterlimit="10"/>
</svg>
