<svg width="677" height="647" viewBox="0 0 677 647" fill="none" xmlns="http://www.w3.org/2000/svg">
<path d="M338.448 646.597C525.368 646.597 676.897 501.851 676.897 323.298C676.897 144.746 525.368 0 338.448 0C151.528 0 0 144.746 0 323.298C0 501.851 151.528 646.597 338.448 646.597Z" fill="#EC3D1E"/>
<g style="mix-blend-mode:darken" opacity="0.2">
<path d="M338.448 646.603C525.371 646.603 676.877 501.846 676.877 323.298C676.704 277.637 666.646 232.555 647.394 191.15C628.141 149.746 600.151 113.002 565.348 83.4436C621.257 141.778 652.542 219.409 652.704 300.21C652.704 478.764 476.55 643.265 289.627 643.265" fill="black"/>
</g>
<g opacity="0.8">
<g style="mix-blend-mode:darken" opacity="0.1">
<path d="M235.664 128.365C249.426 128.365 260.583 117.208 260.583 103.445C260.583 89.6827 249.426 78.5259 235.664 78.5259C221.901 78.5259 210.744 89.6827 210.744 103.445C210.744 117.208 221.901 128.365 235.664 128.365Z" fill="#312449"/>
</g>
<g style="mix-blend-mode:darken" opacity="0.1">
<path d="M218.306 103.445C218.316 97.502 220.455 91.759 224.335 87.2576C228.216 82.7561 233.581 79.7943 239.458 78.9091C238.209 78.684 236.945 78.5559 235.677 78.5258C232.371 78.4719 229.087 79.0766 226.017 80.3046C222.947 81.5326 220.152 83.3593 217.795 85.6783C215.438 87.9973 213.566 90.7622 212.288 93.8119C211.01 96.8617 210.352 100.135 210.352 103.442C210.352 106.749 211.01 110.022 212.288 113.072C213.566 116.122 215.438 118.886 217.795 121.205C220.152 123.525 222.947 125.351 226.017 126.579C229.087 127.807 232.371 128.412 235.677 128.358C236.945 128.327 238.209 128.201 239.458 127.981C233.582 127.095 228.217 124.133 224.337 119.631C220.457 115.13 218.317 109.388 218.306 103.445Z" fill="#312449"/>
</g>
</g>
<g opacity="0.8">
<g style="mix-blend-mode:darken" opacity="0.1">
<path d="M609.383 308.062C622.682 308.062 633.463 297.281 633.463 283.982C633.463 270.683 622.682 259.902 609.383 259.902C596.084 259.902 585.303 270.683 585.303 283.982C585.303 297.281 596.084 308.062 609.383 308.062Z" fill="#312449"/>
</g>
<g style="mix-blend-mode:darken" opacity="0.1">
<path d="M592.614 283.976C592.622 278.236 594.685 272.688 598.431 268.339C602.177 263.989 607.356 261.125 613.032 260.266C611.824 260.05 610.602 259.929 609.376 259.902C603.06 260.007 597.037 262.59 592.608 267.093C588.178 271.597 585.695 277.662 585.695 283.979C585.695 290.296 588.178 296.361 592.608 300.864C597.037 305.368 603.06 307.951 609.376 308.056C610.602 308.027 611.825 307.903 613.032 307.686C607.356 306.826 602.177 303.962 598.431 299.613C594.685 295.263 592.622 289.716 592.614 283.976Z" fill="#312449"/>
</g>
</g>
<g opacity="0.8">
<g style="mix-blend-mode:darken" opacity="0.1">
<path d="M186.671 507.583C199.97 507.583 210.751 496.802 210.751 483.503C210.751 470.204 199.97 459.423 186.671 459.423C173.372 459.423 162.591 470.204 162.591 483.503C162.591 496.802 173.372 507.583 186.671 507.583Z" fill="#312449"/>
</g>
<g style="mix-blend-mode:darken" opacity="0.1">
<path d="M169.902 483.503C169.91 477.763 171.973 472.216 175.719 467.866C179.465 463.517 184.644 460.653 190.32 459.793C189.113 459.576 187.891 459.452 186.664 459.423C180.348 459.528 174.326 462.111 169.896 466.614C165.466 471.118 162.983 477.182 162.983 483.5C162.983 489.817 165.466 495.881 169.896 500.385C174.326 504.889 180.348 507.472 186.664 507.576C187.89 507.55 189.113 507.429 190.32 507.213C184.644 506.353 179.465 503.489 175.719 499.14C171.973 494.79 169.91 489.243 169.902 483.503Z" fill="#312449"/>
</g>
</g>
<g style="mix-blend-mode:darken" opacity="0.1">
<path d="M407.72 111.648L368.933 147.454L364.102 190.723L397.277 239.954L446.514 226.112L465.161 255.619C465.161 255.619 493.055 229.397 496.637 224.229C500.22 219.06 508.423 166.848 508.423 164.614C508.423 162.379 498.277 119.851 496.637 119.851C494.998 119.851 445.741 125.886 443.526 126.223C441.312 126.56 419.658 129.614 419.658 126.223C419.173 121.328 418.425 116.463 417.417 111.648H407.72Z" fill="#312449"/>
</g>
<g style="mix-blend-mode:darken" opacity="0.1">
<path d="M455.96 126.223C457.533 125.985 482.221 122.951 497.391 121.154C497.074 120.38 496.803 119.832 496.637 119.832C494.998 119.832 445.741 125.866 443.527 126.203C442.601 126.349 438.331 126.95 433.665 127.373C441.116 127.869 448.599 127.483 455.96 126.223Z" fill="#312449"/>
</g>
<g style="mix-blend-mode:darken" opacity="0.1">
<path d="M376.535 190.723L381.367 147.454L417.834 113.79C417.589 112.514 417.417 111.648 417.417 111.648H407.72L368.933 147.454L364.102 190.723L397.277 239.954L407.727 237.012L376.535 190.723Z" fill="#312449"/>
</g>
<g style="mix-blend-mode:darken" opacity="0.1">
<path d="M458.941 226.112L448.365 229.08L465.141 255.619C465.141 255.619 468.446 252.506 472.908 248.242L458.941 226.112Z" fill="#312449"/>
</g>
<g style="mix-blend-mode:darken" opacity="0.1">
<path d="M426.308 524.914L398.936 535.49L395.525 548.274L418.937 562.816L453.673 558.731L466.833 567.443C466.833 567.443 486.511 559.702 489.042 558.189C492.673 552.764 495.478 546.829 497.364 540.58C495.165 535.837 492.368 531.394 489.042 527.36C487.886 527.36 453.15 529.145 451.571 529.244C445.97 529.795 440.329 529.795 434.729 529.244C434.37 527.753 433.84 526.309 433.149 524.941L426.308 524.914Z" fill="#312449"/>
</g>
<g style="mix-blend-mode:darken" opacity="0.1">
<path d="M460.369 529.217C461.479 529.145 478.876 528.246 489.598 527.717C489.373 527.492 489.188 527.333 489.069 527.333C487.912 527.333 453.177 529.118 451.597 529.217C450.936 529.257 447.929 529.435 444.637 529.561C448.12 529.944 459.047 529.303 460.369 529.217Z" fill="#312449"/>
</g>
<g style="mix-blend-mode:darken" opacity="0.1">
<path d="M404.323 548.267L407.734 535.483L433.466 525.569L433.175 524.908H426.308L398.936 535.483L395.525 548.267L418.937 562.809L426.308 561.943L404.323 548.267Z" fill="#312449"/>
</g>
<g style="mix-blend-mode:darken" opacity="0.1">
<path d="M462.471 558.717L455.028 559.59L466.86 567.429C466.86 567.429 469.2 566.51 472.339 565.254L462.471 558.717Z" fill="#312449"/>
</g>
<g style="mix-blend-mode:darken" opacity="0.1">
<path d="M42.2705 254.066L16.3398 287.235L13.1141 327.311L35.2904 372.919L68.1946 360.096L80.661 387.435C80.661 387.435 99.301 363.143 101.7 358.351C105.31 340.096 107.94 321.661 109.579 303.125C107.672 289.179 105.042 275.341 101.7 261.667C100.603 261.667 67.699 267.253 66.1985 267.57C64.6981 267.887 50.2487 270.71 50.2487 267.57C50.2487 264.43 48.7482 254.066 48.7482 254.066H42.2705Z" fill="#312449"/>
</g>
<g style="mix-blend-mode:darken" opacity="0.1">
<path d="M74.5005 267.577C75.5449 267.352 92.0498 264.536 102.189 262.877C101.971 262.156 101.793 261.674 101.687 261.674C100.59 261.674 67.6856 267.259 66.1851 267.577C65.5704 267.702 62.7149 268.237 59.5752 268.654C64.5758 269.108 69.617 268.744 74.5005 267.577Z" fill="#312449"/>
</g>
<g style="mix-blend-mode:darken" opacity="0.1">
<path d="M21.4095 327.317L24.6417 287.241L49.0126 256.055C48.8539 254.872 48.7349 254.073 48.7349 254.073H42.2572L16.3265 287.241L13.1008 327.317L35.2771 372.926L42.2639 370.202L21.4095 327.317Z" fill="#312449"/>
</g>
<g style="mix-blend-mode:darken" opacity="0.1">
<path d="M76.4901 360.096L69.4373 362.846L80.6741 387.434C80.6741 387.434 82.8885 384.546 85.8629 380.6L76.4901 360.096Z" fill="#312449"/>
</g>
</svg>
