<svg width="1204" height="800" viewBox="0 0 1204 800" fill="none" xmlns="http://www.w3.org/2000/svg">
<path d="M229.859 395.997C229.859 419.213 234.431 442.202 243.316 463.651C252.2 485.101 265.223 504.59 281.639 521.006C298.056 537.423 317.545 550.445 338.994 559.329C360.443 568.214 383.432 572.787 406.648 572.787C429.865 572.787 452.854 568.214 474.303 559.329C495.752 550.445 515.241 537.423 531.658 521.006C548.074 504.59 561.096 485.101 569.981 463.651C578.865 442.202 583.438 419.213 583.438 395.997C583.438 372.781 578.865 349.791 569.981 328.342C561.096 306.893 548.074 287.404 531.658 270.988C515.241 254.571 495.752 241.549 474.303 232.664C452.854 223.78 429.865 219.207 406.648 219.207C383.432 219.207 360.443 223.78 338.994 232.664C317.545 241.549 298.056 254.571 281.639 270.988C265.223 287.404 252.2 306.893 243.316 328.342C234.431 349.791 229.859 372.781 229.859 395.997Z" fill="#228E9D"/>
<path d="M221.214 612.123C221.214 621.559 228.863 629.206 238.298 629.206C228.863 629.206 221.214 636.855 221.214 646.29C221.214 636.855 213.566 629.206 204.131 629.206C213.566 629.206 221.214 621.559 221.214 612.123Z" fill="#ED8F27"/>
<path d="M229.882 662.656H212.543V646.288C212.543 641.648 208.773 637.878 204.133 637.878H187.765V620.539H204.133C208.773 620.539 212.543 616.763 212.543 612.123V595.755H229.882V612.123C229.882 616.763 233.658 620.539 238.298 620.539V637.878C233.659 637.878 229.882 641.648 229.882 646.288V662.656ZM254.666 637.878H238.297V620.539H254.666V637.878Z" fill="#ED8F27"/>
<path d="M697.984 456.609C697.984 462.926 703.105 468.046 709.421 468.046C703.105 468.046 697.984 473.166 697.984 479.484C697.984 473.166 692.863 468.046 686.547 468.046C692.863 468.046 697.984 462.926 697.984 456.609Z" fill="#ED8F27"/>
<path d="M703.788 490.442H692.179V479.484C692.179 476.377 689.655 473.85 686.548 473.85H675.59V462.241H686.548C688.041 462.24 689.473 461.647 690.528 460.591C691.584 459.535 692.178 458.104 692.179 456.611V445.652H703.788V456.611C703.788 459.717 706.316 462.241 709.422 462.241V473.85C706.316 473.85 703.788 476.378 703.788 479.484V490.442ZM720.38 473.849H709.421V462.241H720.38V473.849Z" fill="#ED8F27"/>
<path d="M624.139 492.688C624.139 502.122 631.787 509.77 641.222 509.77C631.787 509.77 624.139 517.42 624.139 526.854C624.139 517.419 616.49 509.77 607.055 509.77C616.49 509.771 624.139 502.123 624.139 492.688Z" fill="#ED8F27"/>
<path d="M632.809 543.222H615.47V526.853C615.47 522.214 611.695 518.444 607.055 518.444H590.687V501.105H607.055C611.695 501.105 615.47 497.328 615.47 492.689V476.32H632.809V492.688C632.809 497.327 636.58 501.104 641.22 501.104V518.443C636.58 518.443 632.809 522.213 632.809 526.852V543.222ZM657.588 518.443H641.22V501.104H657.588V518.443Z" fill="#ED8F27"/>
<path d="M560.263 608.873C560.263 615.316 565.487 620.539 571.929 620.539H583.105H571.93C565.487 620.539 560.264 625.762 560.264 632.205C560.264 625.762 555.041 620.539 548.598 620.539C555.041 620.54 560.263 615.317 560.263 608.873Z" fill="#ED8F27"/>
<path d="M566.184 643.384H554.344V632.206C554.344 629.038 551.766 626.459 548.597 626.459H537.419V614.619H548.597C551.765 614.619 554.344 612.041 554.344 608.872V597.695H566.184V608.873C566.184 612.041 568.762 614.62 571.931 614.62V626.46C568.762 626.46 566.184 629.038 566.184 632.207L566.184 643.384ZM583.108 626.459H571.93V614.619H583.108V626.459Z" fill="#ED8F27"/>
<path d="M116.85 319.192C116.85 328.627 124.498 336.275 133.933 336.275C124.498 336.275 116.85 343.924 116.85 353.359C116.85 343.923 109.201 336.276 99.7664 336.276C109.202 336.276 116.85 328.627 116.85 319.192Z" fill="#ED8F27"/>
<path d="M125.521 369.729H108.182V353.361C108.182 348.722 104.405 344.945 99.7664 344.945H83.3984V327.606H99.7664C104.406 327.606 108.182 323.83 108.182 319.191V302.823H125.521V319.191C125.521 323.83 129.291 327.606 133.93 327.606V344.945C129.291 344.945 125.521 348.721 125.521 353.361V369.729ZM150.299 344.945H133.93V327.606H150.299V344.945Z" fill="#ED8F27"/>
<path d="M466.77 576.959C366.497 610.281 257.805 555.812 224.482 455.538C191.159 355.263 245.63 246.572 345.904 213.249C446.178 179.927 554.869 234.397 588.192 334.671C621.514 434.945 567.044 543.636 466.77 576.959ZM351.372 229.703C260.171 260.01 210.629 358.868 240.937 450.07C271.244 541.27 370.102 590.812 461.302 560.505C552.503 530.198 602.045 431.34 571.737 340.139C541.43 248.938 442.572 199.395 351.372 229.703Z" fill="#300604"/>
<path d="M236.561 552.432C186.298 569.135 146.517 573.743 135.127 554.344C118.848 526.619 174.009 474.255 223.156 435.208L233.939 448.79C155.241 511.312 146.72 539.851 150.077 545.569C160.832 563.883 276.299 531.893 432.734 440.052C502.701 398.969 565.239 354.984 608.83 316.202C658.594 271.919 665.76 250.028 662.596 244.638C659.208 238.865 629.81 232.409 535.723 271.336L529.091 255.316C587.766 231.03 661.165 207.952 677.547 235.863C688.552 254.605 669.845 285.119 620.357 329.156C575.943 368.67 512.429 413.366 441.51 455.002C380.611 490.763 300.188 531.288 236.561 552.432Z" fill="#300604"/>
<path d="M157.403 260.119C157.403 263.849 158.138 267.542 159.565 270.988C160.992 274.434 163.085 277.565 165.722 280.202C168.359 282.84 171.49 284.932 174.936 286.359C178.382 287.786 182.076 288.521 185.805 288.521C189.535 288.521 193.229 287.786 196.675 286.359C200.121 284.932 203.252 282.84 205.889 280.202C208.526 277.565 210.618 274.434 212.046 270.988C213.473 267.542 214.208 263.849 214.208 260.119C214.208 256.389 213.473 252.696 212.046 249.25C210.618 245.804 208.526 242.673 205.889 240.035C203.252 237.398 200.121 235.306 196.675 233.878C193.229 232.451 189.535 231.716 185.805 231.716C182.076 231.716 178.382 232.451 174.936 233.878C171.49 235.306 168.359 237.398 165.722 240.035C163.085 242.673 160.992 245.804 159.565 249.25C158.138 252.696 157.403 256.389 157.403 260.119Z" fill="#B12800"/>
<path d="M185.809 297.19C165.365 297.19 148.731 280.562 148.731 260.119C148.731 239.675 165.365 223.047 185.809 223.047C206.252 223.047 222.88 239.675 222.88 260.119C222.88 280.562 206.252 297.19 185.809 297.19ZM185.809 240.387C174.926 240.387 166.07 249.238 166.07 260.12C166.07 271.002 174.926 279.852 185.809 279.852C196.691 279.852 205.541 271.002 205.541 260.12C205.541 249.237 196.691 240.387 185.809 240.387Z" fill="#300604"/>
<path d="M502.325 239.37C510.38 223.567 512.366 204.682 506.331 186.521C494.368 150.522 455.486 131.035 419.486 142.999C388.321 153.356 369.576 183.889 372.852 215.259C418.593 206.684 464.546 216.11 502.325 239.37Z" fill="#FCE3C3"/>
<path d="M505.785 251.677L497.777 246.748C460.771 223.966 416.974 215.813 374.45 223.782L365.212 225.514L364.233 216.162C360.488 180.358 382.576 146.128 416.754 134.77C457.231 121.319 501.105 143.306 514.558 183.788C521.129 203.563 519.53 224.703 510.05 243.3L505.785 251.677ZM381.239 205.141C421.522 199.766 462.361 207.38 498.156 226.93C502.202 214.744 502.224 201.657 498.104 189.258C487.666 157.848 453.627 140.79 422.223 151.226C398.66 159.055 382.511 180.885 381.239 205.141Z" fill="#300604"/>
<path d="M319.313 555.991C307.733 572.082 303.719 593.277 310.448 613.527C321.587 647.045 357.787 665.187 391.305 654.048C423.844 643.235 441.807 608.807 432.642 576.139C392.852 581.966 353.241 574.335 319.313 555.991Z" fill="#ED8F27"/>
<path d="M394.041 662.277C356.038 674.905 314.848 654.262 302.22 616.26C294.908 594.257 298.67 569.834 312.274 550.926L316.727 544.742L323.432 548.366C356.767 566.384 394.095 573.025 431.386 567.562L438.928 566.453L440.988 573.798C451.473 611.18 430.849 650.045 394.041 662.277ZM322.43 567.345C315.344 580.637 313.891 596.4 318.673 610.792C328.287 639.721 359.644 655.436 388.573 645.822C414.208 637.303 429.523 611.8 425.819 585.726C390.193 589.434 354.757 583.135 322.43 567.345ZM509.012 311.482C508.873 311.241 494.098 285.92 467.799 272.74C441.355 259.487 413.972 261.534 413.698 261.556L412.254 244.43C413.559 244.318 444.58 241.879 475.499 257.374C506.577 272.949 523.249 301.752 523.944 302.97L509.012 311.482ZM530.823 314.088L540.092 333.065L524.649 340.609L515.38 321.632L530.823 314.088Z" fill="#300604"/>
<path d="M812.4 369.4V315.4C812.4 302.067 816.933 291.667 826 284.2C835.067 276.733 847.2 273 862.4 273C877.867 273 890.133 276.467 899.2 283.4C908.267 290.067 912.8 298.867 912.8 309.8V359.4C912.8 364.2 909.333 367.533 902.4 369.4C898.667 370.467 894.933 371 891.2 371C887.467 371 883.733 370.6 880 369.8C880.8 363.4 881.2 356.6 881.2 349.4V315.4C881.2 310.333 879.467 306.467 876 303.8C872.533 300.867 868 299.4 862.4 299.4C856.8 299.4 852.267 300.867 848.8 303.8C845.6 306.467 844 310.333 844 315.4V362.2C844 371.533 847.067 378.067 853.2 381.8L895.6 409C907.6 416.467 913.6 427.933 913.6 443.4V498.6C913.6 511.933 908.933 522.333 899.6 529.8C890.267 537.267 877.867 541 862.4 541C847.2 541 834.933 537.667 825.6 531C816.267 524.067 811.6 515.133 811.6 504.2V454.6C811.6 449.8 815.067 446.467 822 444.6C825.733 443.533 829.467 443 833.2 443C836.933 443 840.667 443.4 844.4 444.2C843.6 450.6 843.2 457.4 843.2 464.6V498.6C843.2 503.4 845.067 507.267 848.8 510.2C852.533 513.133 857.2 514.6 862.8 514.6C868.4 514.6 872.933 513.133 876.4 510.2C880.133 507.267 882 503.4 882 498.6V453.4C882 443 878.4 435.533 871.2 431L828.8 403.4C817.867 396.467 812.4 385.133 812.4 369.4Z" fill="#DDDDDD"/>
<path d="M958.4 369.4V315.4C958.4 302.067 962.933 291.667 972 284.2C981.067 276.733 993.2 273 1008.4 273C1023.87 273 1036.13 276.467 1045.2 283.4C1054.27 290.067 1058.8 298.867 1058.8 309.8V359.4C1058.8 364.2 1055.33 367.533 1048.4 369.4C1044.67 370.467 1040.93 371 1037.2 371C1033.47 371 1029.73 370.6 1026 369.8C1026.8 363.4 1027.2 356.6 1027.2 349.4V315.4C1027.2 310.333 1025.47 306.467 1022 303.8C1018.53 300.867 1014 299.4 1008.4 299.4C1002.8 299.4 998.267 300.867 994.8 303.8C991.6 306.467 990 310.333 990 315.4V362.2C990 371.533 993.067 378.067 999.2 381.8L1041.6 409C1053.6 416.467 1059.6 427.933 1059.6 443.4V498.6C1059.6 511.933 1054.93 522.333 1045.6 529.8C1036.27 537.267 1023.87 541 1008.4 541C993.2 541 980.933 537.667 971.6 531C962.267 524.067 957.6 515.133 957.6 504.2V454.6C957.6 449.8 961.067 446.467 968 444.6C971.733 443.533 975.467 443 979.2 443C982.933 443 986.667 443.4 990.4 444.2C989.6 450.6 989.2 457.4 989.2 464.6V498.6C989.2 503.4 991.067 507.267 994.8 510.2C998.533 513.133 1003.2 514.6 1008.8 514.6C1014.4 514.6 1018.93 513.133 1022.4 510.2C1026.13 507.267 1028 503.4 1028 498.6V453.4C1028 443 1024.4 435.533 1017.2 431L974.8 403.4C963.867 396.467 958.4 385.133 958.4 369.4Z" fill="#DDDDDD"/>
<path d="M1175.6 277C1185.2 277 1192.4 276.333 1197.2 275C1199.33 282.467 1200.4 289.8 1200.4 297C1200.4 301.267 1198.53 303.4 1194.8 303.4H1163.6V499.4L1165.2 537C1156.13 538.333 1147.2 539 1138.4 539C1134.13 539 1132 536.733 1132 532.2V303.4H1120C1110.4 303.4 1103.2 304.067 1098.4 305.4C1096.27 297.933 1095.2 290.6 1095.2 283.4C1095.2 279.133 1097.07 277 1100.8 277H1175.6Z" fill="#DDDDDD"/>
</svg>
